<svg width="100" height="100" viewBox="0 0 100 100" fill="none" xmlns="http://www.w3.org/2000/svg">
<circle cx="50" cy="50" r="50" fill="#F94F02"/>
<rect x="37.2003" y="38" width="56" height="28" rx="13" transform="rotate(21.3643 37.2003 38)" fill="#5AAC00"/>
<path d="M58.346 19.021C60.0494 24.4894 61.9381 36.3854 58.8799 42.0641C55.6558 48.0505 53.4027 49.1338 52.9515 49.3506L53.3497 52.4879L40.828 55.1713L28.4168 58.3223L27.3815 55.3341C26.8814 55.3399 24.3818 55.3693 18.8356 51.4345C13.5753 47.7024 9.98945 36.2036 9.08966 30.5471L33.7265 24.8232L58.346 19.021Z" fill="#FFE6A0"/>
<path d="M92.7106 23.9922C93.0343 24.5227 93.3457 25.0612 93.65 25.6045C88.5574 30.8032 84.4102 35.4262 83.7076 37.3516C87.287 41.3532 86.2202 49.089 81.0504 55.2539C75.5499 61.813 67.4889 64.1098 63.0455 60.3838C58.6021 56.6576 59.4591 48.3191 64.9596 41.7598C70.2967 35.3954 78.0436 33.0457 82.5582 36.3154C84.4057 35.1941 88.3743 30.0865 92.7106 23.9922Z" fill="#355524"/>
</svg>
