<svg width="306" height="123" viewBox="0 0 306 123" fill="none" xmlns="http://www.w3.org/2000/svg">
<path d="M16.6853 19.6885C18.6796 8.58196 28.2724 0.583984 39.5994 0.583984H263.535C275.169 0.583984 285.386 8.70026 288.064 20.07L288.654 22.5759C289.768 27.3046 292.689 31.4427 296.786 34.0976V34.0976C302.045 37.5057 305.287 43.2984 305.409 49.5084L305.662 62.3495L305.878 73.3114C305.987 78.8397 302.935 83.8846 298.014 86.3106V86.3106C293.955 88.3118 291.116 92.1279 290.352 96.6077L289.423 102.057C287.369 114.109 277.004 122.83 264.734 122.83H44.5834C31.8279 122.83 20.7354 113.668 18.283 101.107L17.538 97.2914C16.5692 92.3293 13.5315 87.9764 9.1911 85.3309V85.3309C3.92113 82.1187 0.639058 76.4385 0.518539 70.3216L0.325349 60.5162L0.0985436 49.0048C-0.022694 42.8514 3.08358 37.1461 8.28807 33.963V33.963C12.4634 31.4094 15.3371 27.1968 16.2065 22.3553L16.6853 19.6885Z" fill="#30B700"/>
</svg>
